<mxfile host="app.diagrams.net" modified="2023-12-26T12:25:31.501Z" agent="Mozilla/5.0 (Windows NT 10.0; Win64; x64) AppleWebKit/537.36 (KHTML, like Gecko) Chrome/120.0.0.0 Safari/537.36" etag="S07PrzH5kvzwRBO_WWwF" version="22.1.11" type="device">
  <diagram name="Página-1" id="RgFlHrcLlI10oKdF3j07">
    <mxGraphModel dx="1674" dy="746" grid="1" gridSize="10" guides="1" tooltips="1" connect="1" arrows="1" fold="1" page="1" pageScale="1" pageWidth="827" pageHeight="1169" math="0" shadow="0">
      <root>
        <mxCell id="0" />
        <mxCell id="1" parent="0" />
        <mxCell id="WF9x9MA-UrHeTna10F4x-7" style="edgeStyle=orthogonalEdgeStyle;rounded=0;orthogonalLoop=1;jettySize=auto;html=1;entryX=0.5;entryY=0;entryDx=0;entryDy=0;" edge="1" parent="1" source="WF9x9MA-UrHeTna10F4x-1" target="WF9x9MA-UrHeTna10F4x-6">
          <mxGeometry relative="1" as="geometry" />
        </mxCell>
        <mxCell id="WF9x9MA-UrHeTna10F4x-8" style="edgeStyle=orthogonalEdgeStyle;rounded=0;orthogonalLoop=1;jettySize=auto;html=1;entryX=0.5;entryY=0;entryDx=0;entryDy=0;" edge="1" parent="1" source="WF9x9MA-UrHeTna10F4x-1" target="WF9x9MA-UrHeTna10F4x-5">
          <mxGeometry relative="1" as="geometry" />
        </mxCell>
        <mxCell id="WF9x9MA-UrHeTna10F4x-10" style="edgeStyle=orthogonalEdgeStyle;rounded=0;orthogonalLoop=1;jettySize=auto;html=1;entryX=0;entryY=0.5;entryDx=0;entryDy=0;" edge="1" parent="1" source="WF9x9MA-UrHeTna10F4x-1" target="WF9x9MA-UrHeTna10F4x-9">
          <mxGeometry relative="1" as="geometry" />
        </mxCell>
        <mxCell id="WF9x9MA-UrHeTna10F4x-1" value="sección log in" style="whiteSpace=wrap;html=1;align=center;" vertex="1" parent="1">
          <mxGeometry x="150" y="530" width="100" height="40" as="geometry" />
        </mxCell>
        <mxCell id="WF9x9MA-UrHeTna10F4x-4" value="conexión base de datos" style="whiteSpace=wrap;html=1;align=center;" vertex="1" parent="1">
          <mxGeometry x="430" y="310" width="100" height="40" as="geometry" />
        </mxCell>
        <mxCell id="WF9x9MA-UrHeTna10F4x-5" value="&lt;span style=&quot;border-bottom: 1px dotted&quot;&gt;contraseña&lt;/span&gt;" style="ellipse;whiteSpace=wrap;html=1;align=center;" vertex="1" parent="1">
          <mxGeometry x="100" y="600" width="100" height="40" as="geometry" />
        </mxCell>
        <mxCell id="WF9x9MA-UrHeTna10F4x-6" value="&lt;span style=&quot;border-bottom: 1px dotted&quot;&gt;user&lt;/span&gt;" style="ellipse;whiteSpace=wrap;html=1;align=center;" vertex="1" parent="1">
          <mxGeometry x="200" y="600" width="100" height="40" as="geometry" />
        </mxCell>
        <mxCell id="WF9x9MA-UrHeTna10F4x-11" style="edgeStyle=orthogonalEdgeStyle;rounded=0;orthogonalLoop=1;jettySize=auto;html=1;entryX=0;entryY=0.5;entryDx=0;entryDy=0;" edge="1" parent="1" source="WF9x9MA-UrHeTna10F4x-9" target="WF9x9MA-UrHeTna10F4x-4">
          <mxGeometry relative="1" as="geometry" />
        </mxCell>
        <mxCell id="WF9x9MA-UrHeTna10F4x-9" value="es necesario" style="shape=rhombus;perimeter=rhombusPerimeter;whiteSpace=wrap;html=1;align=center;" vertex="1" parent="1">
          <mxGeometry x="320" y="450" width="120" height="60" as="geometry" />
        </mxCell>
        <mxCell id="WF9x9MA-UrHeTna10F4x-18" style="edgeStyle=orthogonalEdgeStyle;rounded=0;orthogonalLoop=1;jettySize=auto;html=1;entryX=0.5;entryY=0;entryDx=0;entryDy=0;" edge="1" parent="1" source="WF9x9MA-UrHeTna10F4x-12" target="WF9x9MA-UrHeTna10F4x-14">
          <mxGeometry relative="1" as="geometry" />
        </mxCell>
        <mxCell id="WF9x9MA-UrHeTna10F4x-19" style="edgeStyle=orthogonalEdgeStyle;rounded=0;orthogonalLoop=1;jettySize=auto;html=1;entryX=0.5;entryY=0;entryDx=0;entryDy=0;" edge="1" parent="1" source="WF9x9MA-UrHeTna10F4x-12" target="WF9x9MA-UrHeTna10F4x-15">
          <mxGeometry relative="1" as="geometry" />
        </mxCell>
        <mxCell id="WF9x9MA-UrHeTna10F4x-21" style="edgeStyle=orthogonalEdgeStyle;rounded=0;orthogonalLoop=1;jettySize=auto;html=1;entryX=0.5;entryY=1;entryDx=0;entryDy=0;" edge="1" parent="1" source="WF9x9MA-UrHeTna10F4x-12" target="WF9x9MA-UrHeTna10F4x-9">
          <mxGeometry relative="1" as="geometry" />
        </mxCell>
        <mxCell id="WF9x9MA-UrHeTna10F4x-12" value="sección inventario" style="whiteSpace=wrap;html=1;align=center;" vertex="1" parent="1">
          <mxGeometry x="540" y="520" width="100" height="40" as="geometry" />
        </mxCell>
        <mxCell id="WF9x9MA-UrHeTna10F4x-14" value="sección ver sock" style="whiteSpace=wrap;html=1;align=center;" vertex="1" parent="1">
          <mxGeometry x="485" y="600" width="100" height="40" as="geometry" />
        </mxCell>
        <mxCell id="WF9x9MA-UrHeTna10F4x-15" value="sección crud de productos" style="whiteSpace=wrap;html=1;align=center;" vertex="1" parent="1">
          <mxGeometry x="595" y="600" width="100" height="40" as="geometry" />
        </mxCell>
        <mxCell id="WF9x9MA-UrHeTna10F4x-24" style="edgeStyle=orthogonalEdgeStyle;rounded=0;orthogonalLoop=1;jettySize=auto;html=1;entryX=0.5;entryY=0;entryDx=0;entryDy=0;" edge="1" parent="1" source="WF9x9MA-UrHeTna10F4x-22" target="WF9x9MA-UrHeTna10F4x-23">
          <mxGeometry relative="1" as="geometry" />
        </mxCell>
        <mxCell id="WF9x9MA-UrHeTna10F4x-27" style="edgeStyle=orthogonalEdgeStyle;rounded=0;orthogonalLoop=1;jettySize=auto;html=1;entryX=1;entryY=0.5;entryDx=0;entryDy=0;" edge="1" parent="1" source="WF9x9MA-UrHeTna10F4x-22" target="WF9x9MA-UrHeTna10F4x-26">
          <mxGeometry relative="1" as="geometry" />
        </mxCell>
        <mxCell id="WF9x9MA-UrHeTna10F4x-22" value="pedidos" style="whiteSpace=wrap;html=1;align=center;" vertex="1" parent="1">
          <mxGeometry x="850" y="520" width="100" height="40" as="geometry" />
        </mxCell>
        <mxCell id="WF9x9MA-UrHeTna10F4x-23" value="sección crud de pedidos" style="whiteSpace=wrap;html=1;align=center;" vertex="1" parent="1">
          <mxGeometry x="850" y="600" width="100" height="40" as="geometry" />
        </mxCell>
        <mxCell id="WF9x9MA-UrHeTna10F4x-28" style="edgeStyle=orthogonalEdgeStyle;rounded=0;orthogonalLoop=1;jettySize=auto;html=1;entryX=1;entryY=0.5;entryDx=0;entryDy=0;" edge="1" parent="1" source="WF9x9MA-UrHeTna10F4x-26" target="WF9x9MA-UrHeTna10F4x-12">
          <mxGeometry relative="1" as="geometry" />
        </mxCell>
        <mxCell id="WF9x9MA-UrHeTna10F4x-26" value="necesita que exista" style="shape=rhombus;perimeter=rhombusPerimeter;whiteSpace=wrap;html=1;align=center;" vertex="1" parent="1">
          <mxGeometry x="695" y="510" width="120" height="60" as="geometry" />
        </mxCell>
        <mxCell id="WF9x9MA-UrHeTna10F4x-31" style="edgeStyle=orthogonalEdgeStyle;rounded=0;orthogonalLoop=1;jettySize=auto;html=1;entryX=0.5;entryY=0;entryDx=0;entryDy=0;" edge="1" parent="1" source="WF9x9MA-UrHeTna10F4x-29" target="WF9x9MA-UrHeTna10F4x-30">
          <mxGeometry relative="1" as="geometry" />
        </mxCell>
        <mxCell id="WF9x9MA-UrHeTna10F4x-34" style="edgeStyle=orthogonalEdgeStyle;rounded=0;orthogonalLoop=1;jettySize=auto;html=1;" edge="1" parent="1" source="WF9x9MA-UrHeTna10F4x-29" target="WF9x9MA-UrHeTna10F4x-33">
          <mxGeometry relative="1" as="geometry" />
        </mxCell>
        <mxCell id="WF9x9MA-UrHeTna10F4x-29" value="Albarán/factura" style="whiteSpace=wrap;html=1;align=center;" vertex="1" parent="1">
          <mxGeometry x="1210" y="520" width="100" height="40" as="geometry" />
        </mxCell>
        <mxCell id="WF9x9MA-UrHeTna10F4x-30" value="Albarán/factura" style="whiteSpace=wrap;html=1;align=center;" vertex="1" parent="1">
          <mxGeometry x="1210" y="600" width="100" height="40" as="geometry" />
        </mxCell>
        <mxCell id="WF9x9MA-UrHeTna10F4x-35" style="edgeStyle=orthogonalEdgeStyle;rounded=0;orthogonalLoop=1;jettySize=auto;html=1;entryX=1;entryY=0.5;entryDx=0;entryDy=0;" edge="1" parent="1" source="WF9x9MA-UrHeTna10F4x-33" target="WF9x9MA-UrHeTna10F4x-22">
          <mxGeometry relative="1" as="geometry" />
        </mxCell>
        <mxCell id="WF9x9MA-UrHeTna10F4x-33" value="necesita que exista" style="shape=rhombus;perimeter=rhombusPerimeter;whiteSpace=wrap;html=1;align=center;" vertex="1" parent="1">
          <mxGeometry x="1020" y="510" width="120" height="60" as="geometry" />
        </mxCell>
      </root>
    </mxGraphModel>
  </diagram>
</mxfile>
